<svg xmlns="http://www.w3.org/2000/svg" viewBox="0 0 481.73 745"><defs><style>.cls-1{fill:#040000;}.cls-2{fill:#cdaa84;}.cls-3{fill:#231815;}</style></defs><title>map</title><g id="레이어_1" data-name="레이어 1"><rect class="cls-1" width="7.78" height="676.5"/><rect class="cls-1" x="302.64" y="-209.2" width="7.78" height="481.73" transform="translate(209.2 310.42) rotate(-90)"/><rect class="cls-1" x="473.96" width="7.78" height="745"/><rect class="cls-1" x="232.16" y="563.38" width="10" height="113.12"/><rect class="cls-1" x="237.16" y="126.08" width="10" height="245.96"/><rect class="cls-1" x="182.86" y="579.31" width="7.78" height="242.16" transform="translate(-579.31 859.36) rotate(-90)"/><rect class="cls-1" x="184.15" y="273.55" width="7.78" height="244.75" transform="translate(-273.55 556.19) rotate(-90)"/><rect class="cls-1" x="368.46" y="593.84" width="7.78" height="350.1" transform="translate(-462.21 1113.46) rotate(-90)"/><rect class="cls-1" x="366.42" y="522.56" width="7.78" height="144.96" transform="translate(-290.4 937.58) rotate(-90)"/><rect class="cls-1" x="536.68" y="587.66" width="8.33" height="13.1" transform="translate(-119.03 1107.28) rotate(-90)"/><rect class="cls-1" x="533.23" y="389.38" width="8.33" height="13.1" transform="translate(75.81 905.55) rotate(-90)"/><rect class="cls-1" x="534.18" y="155.09" width="8.15" height="13.1" transform="translate(310.96 672.11) rotate(-90)"/><rect class="cls-1" x="70.96" y="588.22" width="8.33" height="13.1" transform="translate(-585.3 642.12) rotate(-90)"/><rect class="cls-1" x="303.15" y="153.54" width="12.59" height="13.24" transform="translate(83.63 441.82) rotate(-90)"/><rect class="cls-2" x="65.54" y="129.74" width="171.62" height="8.93"/><polygon class="cls-3" points="439.06 670.16 434.34 675.3 437.95 675.3 437.95 701.13 423.23 701.13 423.23 703.07 437.95 703.07 440.17 703.07 440.17 701.13 440.17 675.3 443.78 675.3 439.06 670.16"/><rect class="cls-3" x="159.4" y="676.5" width="1.25" height="60.73"/><rect class="cls-3" x="190.09" y="676.5" width="1.25" height="60.73"/><rect class="cls-3" x="220.78" y="676.5" width="1.25" height="60.73"/><rect class="cls-3" x="251.46" y="676.5" width="1.25" height="60.73"/><rect class="cls-3" x="282.15" y="676.5" width="1.25" height="60.73"/><rect class="cls-3" x="312.84" y="676.5" width="1.25" height="60.73"/><rect class="cls-3" x="343.52" y="676.5" width="1.25" height="60.73"/><rect class="cls-3" x="374.21" y="676.5" width="1.25" height="60.73"/><path class="cls-3" d="M180.3,675.23v.89h-2.75v2.48h-1.09v-2.48h-2.1v2.48h-1.1v-2.48h-3.77v-.89Zm-9.59-3.29c0-1.48,1.66-2.39,4.18-2.39s4.18.91,4.18,2.39-1.65,2.38-4.18,2.38S170.71,673.42,170.71,671.94Zm1.2,8.1h7.28v.89h-8.38v-3.34h1.1Zm-.06-8.1c0,.93,1.23,1.5,3,1.5s3-.57,3-1.5-1.22-1.51-3-1.51S171.85,671,171.85,671.94Z" transform="translate(-65.67 -27.78)"/><path class="cls-3" d="M183.28,677.33a19.74,19.74,0,0,0,4.09-.3l.1.9a21.56,21.56,0,0,1-4.46.31h-.79v-7.62h4.72v.89h-3.66v2.26h3.47v.87h-3.47Zm8.63-8.08v12h-1v-6.27h-1.59v5.68h-1v-11.1h1V674h1.59v-4.79Z" transform="translate(-65.67 -27.78)"/><path class="cls-3" d="M204.87,674.37v.9h-3v2.87h-1.06v-2.87h-2.11v2.87h-1.06v-2.87H194v-.9h8.07a16.72,16.72,0,0,0,.3-3.58h-7v-.9h8.09v.91a17.73,17.73,0,0,1-.28,3.58ZM196.42,680h7.37v.89h-8.45v-3.74h1.08Z" transform="translate(-65.67 -27.78)"/><path class="cls-3" d="M180.27,429.69v.89H169.52v-.89h4.41V427.4H175v2.29ZM179,433.87c0,1.36-1.63,2.19-4.17,2.19s-4.16-.83-4.16-2.19,1.61-2.2,4.16-2.2S179,432.49,179,433.87Zm-1.17-8.26h-7.06v-.88h8.14v1a10.8,10.8,0,0,1-.34,3.15l-1.06-.12a10.74,10.74,0,0,0,.32-3Zm.08,8.26c0-.85-1.2-1.36-3.08-1.36s-3.06.51-3.06,1.36,1.19,1.34,3.06,1.34S177.93,434.7,177.93,433.87Z" transform="translate(-65.67 -27.78)"/><path class="cls-3" d="M192.58,430.28v.88h-4.79v2.42H186.7v-2.42h-5v-.88Zm-10.17-1.75c2.12-.28,4.05-1.46,4.05-2.92h-3.72v-.88h8.85v.88h-3.72c0,1.46,1.93,2.64,4,2.92l-.4.88c-1.95-.29-3.7-1.25-4.34-2.64-.66,1.39-2.41,2.35-4.35,2.64Zm1.8,6.38h7.17v.89h-8.26v-3.38h1.09Z" transform="translate(-65.67 -27.78)"/><path class="cls-3" d="M204.85,433.78v.89H194v-.89h4.86V432.1c-2.1-.12-3.38-.93-3.38-2.26s1.51-2.27,3.93-2.27,3.89.83,3.89,2.27S202.06,432,200,432.1v1.68Zm-.6-7h-9.7v-.89h4.33v-1.56H200v1.56h4.27Zm-4.82,4.5c1.72,0,2.79-.53,2.79-1.42s-1.07-1.42-2.79-1.42-2.82.54-2.82,1.42S197.68,431.26,199.43,431.26Z" transform="translate(-65.67 -27.78)"/><path class="cls-3" d="M491.86,262.58c0,2.55-1.27,4.17-3,4.17s-3-1.62-3-4.17,1.27-4.17,3-4.17S491.86,260,491.86,262.58Zm-5,0c0,1.95.83,3.2,2,3.2s2-1.25,2-3.2-.82-3.18-2-3.18S486.82,260.65,486.82,262.58Zm8.3-5.08v12H494v-12Z" transform="translate(-65.67 -27.78)"/><path class="cls-3" d="M508.41,263.2v.89h-10.8v-.89Zm-1-.95a6.1,6.1,0,0,1-4.36-2.61,6,6,0,0,1-4.37,2.61l-.39-.85c2.13-.31,4.21-1.61,4.21-3.17v-.53h1.11v.53c0,1.52,2.1,2.86,4.21,3.17Zm-.28,5.06c0,1.38-1.53,2.14-4.08,2.14s-4.1-.76-4.1-2.14,1.55-2.11,4.1-2.11S507.09,266,507.09,267.31Zm-1.1,0c0-.81-1.11-1.27-3-1.27s-3,.46-3,1.27,1.1,1.28,3,1.28S506,268.14,506,267.31Z" transform="translate(-65.67 -27.78)"/><path class="cls-3" d="M515.58,263.12a3.05,3.05,0,0,1-2.45,1.13,3,3,0,1,1,0-6,3.07,3.07,0,0,1,2.44,1.12h3v-1.86h1.1v8.82h-1.1v-3.21Zm-2.45.17a2,2,0,1,0-2-2A2,2,0,0,0,513.13,263.29Zm6.92,5v.89h-8v-3.76h1.1v2.87Zm-4-8a3.17,3.17,0,0,1,0,2h2.57v-2Z" transform="translate(-65.67 -27.78)"/><path class="cls-3" d="M297.36,58.15a27.13,27.13,0,0,0,5.43-.54l.13.91a28.13,28.13,0,0,1-5.69.55h-1V51.3h1.08Zm9.56-2.34H305v6.28h-1.1v-12H305v4.77h1.92Z" transform="translate(-65.67 -27.78)"/><path class="cls-3" d="M311.57,53.51a5.77,5.77,0,0,0,2.55,5.09l-.67.8a5.73,5.73,0,0,1-2.4-3.49,6.16,6.16,0,0,1-2.46,3.78l-.67-.81a6.23,6.23,0,0,0,2.6-5.37V52.43h-2.27v-.89h5.45v.89h-2.13Zm3.2-3.1h1V61.46h-1V55.32h-2v-.89h2Zm3.45-.28V62.08h-1.05V50.13Z" transform="translate(-65.67 -27.78)"/><path class="cls-3" d="M261.87,266.47a3.14,3.14,0,1,1-3.13-2.78A2.85,2.85,0,0,1,261.87,266.47Zm-5.17,0a2.06,2.06,0,0,0,4.1,0,2.06,2.06,0,0,0-4.1,0Zm8.46,4.07v4.3h-7.73v-4.3Zm-6.66.86V274h5.59V271.4Zm6.66-8.34v6.84h-1.1v-6.84Z" transform="translate(-65.67 -27.78)"/><path class="cls-3" d="M278.41,269.34v.88H267.6v-.88Zm-9.6-3.49c0-1.49,1.64-2.39,4.2-2.39s4.2.9,4.2,2.39-1.64,2.37-4.2,2.37S268.81,267.34,268.81,265.85Zm1.28,8h7.13v.89H269v-3.46h1.09Zm-.16-8c0,.94,1.2,1.49,3.08,1.49s3.08-.55,3.08-1.49-1.2-1.51-3.08-1.51S269.93,264.9,269.93,265.85Z" transform="translate(-65.67 -27.78)"/><path class="cls-3" d="M290.7,270.68h-4.89V275h-1.1v-4.33h-4.82v-.9h10.79Zm-1-2.19a6.26,6.26,0,0,1-4.42-2.8,6.15,6.15,0,0,1-4.41,2.8l-.44-.88c2.17-.32,4.27-1.76,4.27-3.47v-.66h1.15v.66c0,1.67,2.13,3.15,4.3,3.47Z" transform="translate(-65.67 -27.78)"/><path class="cls-3" d="M176,367.37c0,2.55-1.27,4.17-3,4.17s-3-1.62-3-4.17,1.27-4.17,3-4.17S176,364.83,176,367.37Zm-5,0c0,1.95.83,3.2,2,3.2s2-1.25,2-3.2-.83-3.18-2-3.18S171,365.44,171,367.37Zm8.3-5.09v12h-1.09v-12Z" transform="translate(-65.67 -27.78)"/><path class="cls-3" d="M188.53,362.55h1v11.1h-1v-3.93h-1.86a2.39,2.39,0,0,1-2.22,1.89c-1.55,0-2.55-1.6-2.55-4.17s1-4.16,2.55-4.16a2.39,2.39,0,0,1,2.22,1.9h1.86ZM186,367.44c0-1.93-.6-3.14-1.56-3.14s-1.56,1.21-1.56,3.14.61,3.16,1.56,3.16S186,369.39,186,367.44Zm2.52,1.37v-2.74H186.9a8.59,8.59,0,0,1,0,2.74Zm3.38-6.53v12h-1v-12Z" transform="translate(-65.67 -27.78)"/><path class="cls-3" d="M201.4,369a32.43,32.43,0,0,1-5.79.4h-1v-3.64H199V364h-4.35v-.88H200v3.45h-4.33v1.92a30.43,30.43,0,0,0,5.59-.4Zm2.75,4.08V374H196v-3.56h1.09v2.67Zm-.34-2h-1.09V362.3h1.09Z" transform="translate(-65.67 -27.78)"/></g><g id="레이어_3" data-name="레이어 3"><path class="cls-3" d="M479.23,594.56v1.31h3.59v2.38H475.6v1.43h7.6v.57h-8.3V597.7h7.23v-1.29h-7.25v-.54h3.65v-1.31h-5V594h10.68v.57Zm-5-1.81c1.93-.18,4.23-1,4.32-2.49h-3.83v-.58h3.85v-1.21h.71v1.21h3.86v.58h-3.85c.08,1.51,2.39,2.31,4.32,2.49l-.23.56c-1.8-.19-3.78-.85-4.46-2.15-.68,1.3-2.67,2-4.47,2.15Z" transform="translate(-65.67 -27.78)"/><path class="cls-3" d="M492.14,591.88a3,3,0,1,1-3-2.68A2.72,2.72,0,0,1,492.14,591.88Zm-5.32,0a2.33,2.33,0,1,0,2.31-2.08A2.13,2.13,0,0,0,486.82,591.88Zm1.84,3.68v1.65h6.08v-1.65h.69v4.68H488v-4.68Zm0,4.09h6.08V597.8h-6.08Zm6.77-11.06v6.34h-.71v-6.34Z" transform="translate(-65.67 -27.78)"/><path class="cls-3" d="M508.76,595.11h-5v5.32h-.7v-5.32h-5v-.6h8.11a16.9,16.9,0,0,0,.39-4.09V590h-7.09v-.59h7.78v1a19.41,19.41,0,0,1-.34,4.09h1.85Z" transform="translate(-65.67 -27.78)"/></g></svg>